<?xml version="1.0" encoding="UTF-8" standalone="no"?>
<!-- Generator: Adobe Illustrator 19.1.0, SVG Export Plug-In . SVG Version: 6.00 Build 0)  -->

<svg
   xmlns:dc="http://purl.org/dc/elements/1.1/"
   xmlns:cc="http://creativecommons.org/ns#"
   xmlns:rdf="http://www.w3.org/1999/02/22-rdf-syntax-ns#"
   xmlns:svg="http://www.w3.org/2000/svg"
   xmlns="http://www.w3.org/2000/svg"
   xmlns:sodipodi="http://sodipodi.sourceforge.net/DTD/sodipodi-0.dtd"
   xmlns:inkscape="http://www.inkscape.org/namespaces/inkscape"
   version="1.1"
   id="Layer_1"
   x="0px"
   y="0px"
   viewBox="0 0 250 250"
   style="enable-background:new 0 0 250 250;"
   xml:space="preserve"
   sodipodi:docname="logo.svg"
   inkscape:version="0.92.2 2405546, 2018-03-11"><metadata
   id="metadata3783"><rdf:RDF><cc:Work
       rdf:about=""><dc:format>image/svg+xml</dc:format><dc:type
         rdf:resource="http://purl.org/dc/dcmitype/StillImage" /><dc:title></dc:title></cc:Work></rdf:RDF></metadata><defs
   id="defs3781" /><sodipodi:namedview
   pagecolor="#ffffff"
   bordercolor="#666666"
   borderopacity="1"
   objecttolerance="10"
   gridtolerance="10"
   guidetolerance="10"
   inkscape:pageopacity="0"
   inkscape:pageshadow="2"
   inkscape:window-width="2560"
   inkscape:window-height="1406"
   id="namedview3779"
   showgrid="false"
   inkscape:zoom="4.736"
   inkscape:cx="124.78885"
   inkscape:cy="125"
   inkscape:window-x="0"
   inkscape:window-y="34"
   inkscape:window-maximized="0"
   inkscape:current-layer="g3776" />
<style
   type="text/css"
   id="style3768">
	.st0{fill:#DD0031;}
	.st1{fill:#C3002F;}
	.st2{fill:#FFFFFF;}
</style>
<g
   id="g3776">
	<polygon
   class="st0"
   points="125,30 125,30 125,30 31.9,63.2 46.1,186.3 125,230 125,230 125,230 203.9,186.3 218.1,63.2  "
   id="polygon3770"
   style="fill:#2196f3;fill-opacity:1" />
	<polygon
   class="st1"
   points="125,30 125,52.2 125,52.1 125,153.4 125,153.4 125,230 125,230 203.9,186.3 218.1,63.2 125,30  "
   id="polygon3772"
   style="fill:#1976d2;fill-opacity:1" />
	
<path
   inkscape:connector-curvature="0"
   d="M 125,73.296681 V 53.907935 L 99.148343,79.759596 125,105.61127 V 86.222515 c 21.42456,0 38.77748,17.352935 38.77748,38.777495 0,6.55985 -1.64805,12.69963 -4.49173,18.12847 l 9.43585,9.43585 c 5.00877,-8.01402 7.98171,-17.41756 7.98171,-27.56432 0,-28.566085 -23.13724,-51.703329 -51.70331,-51.703329 z m 0,90.480819 c -21.42456,0 -38.777483,-17.35293 -38.777483,-38.77749 0,-6.55986 1.648047,-12.69962 4.491726,-18.12847 l -9.435851,-9.435865 c -5.008767,8.014015 -7.981705,17.417555 -7.981705,27.564335 0,28.56608 23.137226,51.70331 51.703313,51.70331 v 19.38874 L 150.85165,170.2404 125,144.38875 Z"
   id="path4638"
   style="fill:#ffffff;fill-opacity:1;stroke-width:3.23145723" /><path
   inkscape:connector-curvature="0"
   d="m 99.735402,125 c 0,-5.33364 4.335528,-9.66917 9.669168,-9.66917 h 12.47634 v -5.92627 h -12.47634 c -8.60868,0 -15.595441,6.98676 -15.595441,15.59544 0,8.60868 6.986761,15.59544 15.595441,15.59544 h 12.47634 v -5.92627 h -12.47634 c -5.33364,0 -9.669168,-4.33553 -9.669168,-9.66917 z m 12.788258,3.11909 h 24.95269 v -6.23818 h -24.95269 z m 28.07177,-18.71453 h -12.47635 v 5.92627 h 12.47635 c 5.33364,0 9.66918,4.33553 9.66918,9.66917 0,5.33364 -4.33554,9.66917 -9.66918,9.66917 h -12.47635 v 5.92627 h 12.47635 c 8.60869,0 15.59544,-6.98676 15.59544,-15.59544 0,-8.60868 -6.98675,-15.59544 -15.59544,-15.59544 z"
   id="path4711"
   style="stroke-width:1.55954397;fill:#ffffff;fill-opacity:1" /></g>
</svg>