<?xml version="1.0" encoding="UTF-8" standalone="no"?>
<!-- Generator: Adobe Illustrator 19.1.0, SVG Export Plug-In . SVG Version: 6.00 Build 0)  -->

<svg
   xmlns:dc="http://purl.org/dc/elements/1.1/"
   xmlns:cc="http://creativecommons.org/ns#"
   xmlns:rdf="http://www.w3.org/1999/02/22-rdf-syntax-ns#"
   xmlns:svg="http://www.w3.org/2000/svg"
   xmlns="http://www.w3.org/2000/svg"
   xmlns:sodipodi="http://sodipodi.sourceforge.net/DTD/sodipodi-0.dtd"
   xmlns:inkscape="http://www.inkscape.org/namespaces/inkscape"
   version="1.1"
   id="Layer_1"
   x="0px"
   y="0px"
   viewBox="0 0 250 250"
   style="enable-background:new 0 0 250 250;"
   xml:space="preserve"
   sodipodi:docname="logo.svg"
   inkscape:version="0.92.2 2405546, 2018-03-11"><metadata
   id="metadata3783"><rdf:RDF><cc:Work
       rdf:about=""><dc:format>image/svg+xml</dc:format><dc:type
         rdf:resource="http://purl.org/dc/dcmitype/StillImage" /><dc:title /></cc:Work></rdf:RDF></metadata><defs
   id="defs3781" /><sodipodi:namedview
   pagecolor="#ffffff"
   bordercolor="#666666"
   borderopacity="1"
   objecttolerance="10"
   gridtolerance="10"
   guidetolerance="10"
   inkscape:pageopacity="0"
   inkscape:pageshadow="2"
   inkscape:window-width="2560"
   inkscape:window-height="1406"
   id="namedview3779"
   showgrid="false"
   inkscape:zoom="0.70710678"
   inkscape:cx="696.78734"
   inkscape:cy="15.316815"
   inkscape:window-x="0"
   inkscape:window-y="34"
   inkscape:window-maximized="0"
   inkscape:current-layer="g3776" />
<style
   type="text/css"
   id="style3768">
	.st0{fill:#DD0031;}
	.st1{fill:#C3002F;}
	.st2{fill:#FFFFFF;}
</style>
<g
   id="g3776">
	<polygon
   class="st0"
   points="125,30 125,30 125,30 31.9,63.2 46.1,186.3 125,230 125,230 125,230 203.9,186.3 218.1,63.2  "
   id="polygon3770"
   style="fill:#2196f3;fill-opacity:1" />
	<polygon
   class="st1"
   points="125,30 125,52.2 125,52.1 125,153.4 125,153.4 125,230 125,230 203.9,186.3 218.1,63.2 125,30  "
   id="polygon3772"
   style="fill:#1976d2;fill-opacity:1" />
	
<path
   id="path4638"
   style="fill:#ffffff;fill-opacity:1;stroke-width:3.31735873"
   d="m 125.07114,60.69433 c 13.83076,0 27.66162,5.09115 38.21984,15.27257 l 14.33304,-13.82158 v 36.85597 h -38.21984 l 14.33063,-13.82156 c -15.83734,-15.2722 -41.49244,-15.27214 -57.329772,0 -4.849142,4.67609 -8.168439,10.22902 -10.07943,16.12593 H 72.375979 C 74.597485,92.02262 79.35067,83.1998 86.851293,75.9669 97.409492,65.78542 111.24036,60.69435 125.07114,60.69433 Z"
   inkscape:connector-curvature="0"
   sodipodi:nodetypes="scccccscccs" /><path
   inkscape:connector-curvature="0"
   d="M 74.752554,118.30036 H 61.353243 V 104.90104 H 51.303746 v 40.19793 h 10.049497 v -16.74911 h 13.399311 v 16.74911 H 84.802027 V 104.90104 H 74.752554 Z m 16.74913,-3.34982 h 10.049506 v 30.14843 h 10.04945 v -30.14843 h 10.0495 v -10.0495 H 91.501684 Z m 36.848146,0 h 10.04946 v 30.14843 h 10.04948 v -30.14843 h 10.0495 v -10.0495 h -30.14844 z m 60.29694,-10.0495 h -23.44882 v 40.19793 h 10.04949 v -13.39928 h 13.39933 c 5.6947,0 10.04948,-4.35479 10.04948,-10.04949 v -6.69966 c 0,-5.6947 -4.35478,-10.0495 -10.04948,-10.0495 z m 0,16.74916 h -13.39933 v -6.69966 h 13.39933 z"
   id="path844"
   style="fill:#ffffff;fill-opacity:1;stroke-width:3.34982944" /><path
   id="path4638-6"
   style="fill:#ffffff;fill-opacity:1;stroke-width:3.31735873"
   d="m 124.92886,189.30566 c -13.83076,0 -27.66162,-5.09115 -38.21984,-15.27257 l -14.33304,13.82159 v -36.85597 h 38.21984 l -14.33063,13.82156 c 15.83734,15.2722 41.49244,15.27214 57.32977,0 4.84914,-4.67609 8.16844,-10.22902 10.07943,-16.12593 h 13.94963 c -2.22151,9.28304 -6.97469,18.10586 -14.47531,25.33876 -10.5582,10.18148 -24.38907,15.27255 -38.21985,15.27256 z"
   inkscape:connector-curvature="0"
   sodipodi:nodetypes="scccccscccs" /></g>
</svg>